<?xml version="1.0" standalone="no"?>
<!DOCTYPE svg PUBLIC "-//W3C//DTD SVG 20010904//EN"
 "http://www.w3.org/TR/2001/REC-SVG-20010904/DTD/svg10.dtd">
<svg version="1.0" xmlns="http://www.w3.org/2000/svg"
 width="468.000000pt" height="446.000000pt" viewBox="0 0 468.000000 446.000000"
 preserveAspectRatio="xMidYMid meet">
<metadata>
Created by potrace 1.16, written by Peter Selinger 2001-2019
</metadata>
<g transform="translate(0.000000,446.000000) scale(0.100000,-0.100000)"
fill="#000000" stroke="none">
<path d="M2182 4100 c-227 -26 -394 -106 -527 -252 -69 -76 -138 -211 -165
-323 -39 -160 -51 -392 -29 -570 25 -203 136 -460 294 -677 25 -34 45 -65 45
-69 0 -11 -124 -80 -435 -244 -400 -211 -484 -268 -570 -389 -84 -119 -122
-222 -156 -414 -23 -140 -24 -194 -2 -262 21 -65 87 -140 151 -172 l47 -23
1485 0 c1687 0 1537 -8 1625 86 68 72 79 106 79 224 -1 232 -87 476 -218 622
-82 91 -192 157 -691 418 -155 81 -265 145 -265 154 0 3 23 38 51 76 124 171
217 358 267 544 24 90 26 110 26 316 0 171 -4 240 -18 310 -72 356 -299 581
-638 634 -95 15 -274 21 -356 11z"/>
</g>
</svg>
