<?xml version="1.0" standalone="no"?>
<!DOCTYPE svg PUBLIC "-//W3C//DTD SVG 20010904//EN"
 "http://www.w3.org/TR/2001/REC-SVG-20010904/DTD/svg10.dtd">
<svg version="1.0" xmlns="http://www.w3.org/2000/svg"
 width="512.000000pt" height="512.000000pt" viewBox="0 0 512.000000 512.000000"
 preserveAspectRatio="xMidYMid meet">
<metadata>
Created by potrace 1.16, written by Peter Selinger 2001-2019
</metadata>
<g transform="translate(0.000000,512.000000) scale(0.100000,-0.100000)"
fill="#000000" stroke="none">
<path d="M2355 5110 c-506 -54 -856 -311 -1014 -747 -99 -270 -127 -779 -61
-1101 59 -289 217 -620 436 -910 l65 -86 -23 -18 c-53 -41 -242 -145 -533
-293 -562 -286 -713 -376 -848 -504 -204 -194 -333 -507 -369 -898 -8 -93 -8
-140 1 -195 29 -176 164 -314 340 -348 35 -7 788 -10 2220 -10 2355 0 2217 -3
2329 54 62 32 133 104 171 175 45 84 57 174 43 324 -37 402 -170 717 -388 916
-128 117 -286 209 -829 485 -284 144 -474 249 -533 294 l-23 18 64 84 c243
324 391 646 453 990 13 73 17 148 16 326 -1 406 -45 633 -167 862 -209 393
-608 596 -1160 590 -66 0 -152 -4 -190 -8z m360 -320 c506 -48 776 -324 825
-845 13 -142 13 -474 0 -551 -34 -196 -109 -396 -221 -590 -73 -127 -137 -218
-282 -398 l-134 -168 101 -97 c193 -185 259 -226 816 -511 656 -335 734 -391
843 -614 94 -193 162 -536 124 -628 -31 -74 165 -68 -2222 -68 -2381 0 -2201
-5 -2231 66 -13 32 -14 54 -5 144 33 344 148 605 322 736 103 77 267 169 649
364 559 286 628 329 826 521 l91 89 -96 117 c-262 320 -392 537 -480 800 -58
174 -72 271 -71 498 1 374 40 576 147 755 170 286 531 423 998 380z"/>
</g>
</svg>
