<?xml version="1.0" standalone="no"?>
<!DOCTYPE svg PUBLIC "-//W3C//DTD SVG 20010904//EN"
 "http://www.w3.org/TR/2001/REC-SVG-20010904/DTD/svg10.dtd">
<svg version="1.0" xmlns="http://www.w3.org/2000/svg"
 width="465.000000pt" height="465.000000pt" viewBox="0 0 465.000000 465.000000"
 preserveAspectRatio="xMidYMid meet">
<metadata>
Created by potrace 1.16, written by Peter Selinger 2001-2019
</metadata>
<g transform="translate(0.000000,465.000000) scale(0.100000,-0.100000)"
fill="#000000" stroke="none">
<path d="M2152 4140 c-227 -26 -394 -106 -527 -252 -69 -76 -138 -211 -165
-323 -39 -160 -51 -392 -29 -570 25 -203 136 -460 294 -677 25 -34 45 -65 45
-69 0 -11 -124 -80 -435 -244 -400 -211 -484 -268 -570 -389 -84 -119 -122
-222 -156 -414 -23 -140 -24 -194 -2 -262 21 -65 87 -140 151 -172 l47 -23
1485 0 c1687 0 1537 -8 1625 86 68 72 79 106 79 224 -1 232 -87 476 -218 622
-82 91 -192 157 -691 418 -155 81 -265 145 -265 154 0 3 23 38 51 76 124 171
217 358 267 544 24 90 26 110 26 316 0 171 -4 240 -18 310 -72 356 -299 581
-638 634 -95 15 -274 21 -356 11z m383 -235 c216 -57 347 -201 395 -435 28
-137 28 -434 0 -544 -47 -185 -141 -359 -302 -563 -55 -69 -97 -131 -94 -138
8 -21 164 -154 235 -200 36 -23 154 -89 261 -145 506 -265 567 -303 625 -395
72 -112 128 -310 123 -434 -3 -73 -4 -75 -33 -84 -40 -13 -2342 -21 -2668 -10
-200 7 -250 12 -257 23 -23 36 -2 235 35 345 40 118 100 206 177 262 71 52 98
67 418 235 363 191 405 217 522 322 l99 89 -29 31 c-52 54 -195 251 -247 337
-58 99 -109 221 -136 331 -16 63 -20 113 -19 256 0 236 18 339 81 465 56 110
189 211 334 252 121 34 350 35 480 0z"/>
</g>
</svg>
